<svg width="1280" height="720" xmlns="http://www.w3.org/2000/svg" xmlns:xlink="http://www.w3.org/1999/xlink" overflow="hidden"><defs><clipPath id="clip0"><rect x="0" y="0" width="1280" height="720"/></clipPath><clipPath id="clip1"><rect x="0" y="30" width="1280" height="690"/></clipPath><clipPath id="clip2"><rect x="140" y="86" width="1107" height="564"/></clipPath><clipPath id="clip3"><rect x="140" y="86" width="1107" height="564"/></clipPath><clipPath id="clip4"><rect x="140" y="86" width="1107" height="564"/></clipPath><clipPath id="clip5"><rect x="140" y="86" width="1107" height="564"/></clipPath><clipPath id="clip6"><rect x="0" y="30" width="1280" height="690"/></clipPath><clipPath id="clip7"><rect x="0" y="30" width="1280" height="690"/></clipPath><clipPath id="clip8"><rect x="0" y="30" width="1280" height="690"/></clipPath><clipPath id="clip9"><rect x="0" y="30" width="1280" height="690"/></clipPath><clipPath id="clip10"><rect x="0" y="30" width="1280" height="690"/></clipPath><clipPath id="clip11"><rect x="0" y="30" width="1280" height="690"/></clipPath><clipPath id="clip12"><rect x="0" y="30" width="1280" height="690"/></clipPath><clipPath id="clip13"><rect x="0" y="30" width="1280" height="690"/></clipPath><clipPath id="clip14"><rect x="0" y="30" width="1280" height="690"/></clipPath><clipPath id="clip15"><rect x="0" y="30" width="1280" height="690"/></clipPath><clipPath id="clip16"><rect x="0" y="30" width="1280" height="690"/></clipPath><clipPath id="clip17"><rect x="0" y="30" width="1280" height="690"/></clipPath><clipPath id="clip18"><rect x="0" y="30" width="1280" height="690"/></clipPath><clipPath id="clip19"><rect x="0" y="30" width="1280" height="690"/></clipPath><clipPath id="clip20"><rect x="0" y="30" width="1280" height="690"/></clipPath><clipPath id="clip21"><rect x="0" y="30" width="1280" height="690"/></clipPath><clipPath id="clip22"><rect x="0" y="30" width="1280" height="690"/></clipPath><clipPath id="clip23"><rect x="0" y="30" width="1280" height="690"/></clipPath><clipPath id="clip24"><rect x="0" y="30" width="1280" height="690"/></clipPath><clipPath id="clip25"><rect x="0" y="30" width="1280" height="690"/></clipPath><clipPath id="clip26"><rect x="1091" y="129" width="267" height="31"/></clipPath><clipPath id="clip27"><rect x="0" y="30" width="1280" height="690"/></clipPath><clipPath id="clip28"><rect x="0" y="30" width="1280" height="690"/></clipPath><clipPath id="clip29"><rect x="0" y="30" width="1280" height="690"/></clipPath><clipPath id="clip30"><rect x="0" y="30" width="1280" height="690"/></clipPath><clipPath id="clip31"><rect x="0" y="30" width="1280" height="690"/></clipPath><clipPath id="clip32"><rect x="0" y="30" width="1280" height="690"/></clipPath><clipPath id="clip33"><rect x="0" y="30" width="1280" height="690"/></clipPath><clipPath id="clip34"><rect x="0" y="30" width="1280" height="690"/></clipPath><clipPath id="clip35"><rect x="0" y="30" width="1280" height="690"/></clipPath><clipPath id="clip36"><rect x="0" y="30" width="1280" height="690"/></clipPath><clipPath id="clip37"><rect x="-278" y="153" width="1782" height="57"/></clipPath></defs><g clip-path="url(#clip0)"><rect x="0" y="0" width="1280" height="720" fill="#FFFFFF"/><g clip-path="url(#clip1)"><path d="M140.5 649.5 1246.5 649.5" stroke="#D9D9D9" stroke-linejoin="round" stroke-miterlimit="10" fill="none" fill-rule="evenodd"/></g><g clip-path="url(#clip2)"><path d="M186.5 602.5 278.5 563.5 370.5 518.5 462.5 473.5 554.5 432.5 647.5 389.5 739.5 343.5 831.5 299.5 923.5 253.5 1015.5 208.5 1107.5 162.5 1200.5 117.5" stroke="#3B3838" stroke-width="2.66667" stroke-linecap="round" stroke-linejoin="round" stroke-miterlimit="10" fill="none"/></g><g clip-path="url(#clip3)"><path d="M186.5 603.5 278.5 565.5 370.5 515.5 462.5 475.5 554.5 427.5 647.5 387.5 739.5 341.5 831.5 299.5 923.5 255.5 1015.5 207.5 1107.5 158.5 1200.5 114.5" stroke="#8497B0" stroke-width="2.66667" stroke-linecap="round" stroke-linejoin="round" stroke-miterlimit="10" fill="none"/></g><g clip-path="url(#clip4)"><path d="M186.5 602.5 278.5 560.5 370.5 520.5 462.5 475.5 554.5 433.5 647.5 396.5 739.5 359.5 831.5 318.5 923.5 277.5 1015.5 240.5 1107.5 190.5 1200.5 146.5" stroke="#7F7F7F" stroke-width="2.66667" stroke-linecap="round" stroke-linejoin="round" stroke-miterlimit="10" fill="none"/></g><g clip-path="url(#clip5)"><path d="M186 603 278 563 371 514 463 466 555 421 647 375 739 327 831 278 924 241" stroke="#C00000" stroke-width="4" stroke-linecap="round" stroke-linejoin="round" stroke-miterlimit="10" fill="none"/></g><g clip-path="url(#clip6)"><text fill="#595959" font-family="Calibri,Calibri_MSFontService,sans-serif" font-weight="400" font-size="16" transform="translate(109.075 653)">$0</text></g><g clip-path="url(#clip7)"><text fill="#595959" font-family="Calibri,Calibri_MSFontService,sans-serif" font-weight="400" font-size="16" transform="translate(36.2354 560)">$200,000,000</text></g><g clip-path="url(#clip8)"><text fill="#595959" font-family="Calibri,Calibri_MSFontService,sans-serif" font-weight="400" font-size="16" transform="translate(36.2354 466)">$400,000,000</text></g><g clip-path="url(#clip9)"><text fill="#595959" font-family="Calibri,Calibri_MSFontService,sans-serif" font-weight="400" font-size="16" transform="translate(36.2354 372)">$600,000,000</text></g><g clip-path="url(#clip10)"><text fill="#595959" font-family="Calibri,Calibri_MSFontService,sans-serif" font-weight="400" font-size="16" transform="translate(36.2354 278)">$800,000,000</text></g><g clip-path="url(#clip11)"><text fill="#595959" font-family="Calibri,Calibri_MSFontService,sans-serif" font-weight="400" font-size="16" transform="translate(24.1353 184)">$1,000,000,000</text></g><g clip-path="url(#clip12)"><text fill="#595959" font-family="Calibri,Calibri_MSFontService,sans-serif" font-weight="400" font-size="16" transform="translate(24.1353 90)">$1,200,000,000</text></g><g clip-path="url(#clip13)"><text fill="#595959" font-family="Calibri,Calibri_MSFontService,sans-serif" font-weight="400" font-size="21" transform="translate(172.102 683)">Jan</text></g><g clip-path="url(#clip14)"><text fill="#595959" font-family="Calibri,Calibri_MSFontService,sans-serif" font-weight="400" font-size="21" transform="translate(262.57 683)">Feb</text></g><g clip-path="url(#clip15)"><text fill="#595959" font-family="Calibri,Calibri_MSFontService,sans-serif" font-weight="400" font-size="21" transform="translate(352.595 683)">Mar</text></g><g clip-path="url(#clip16)"><text fill="#595959" font-family="Calibri,Calibri_MSFontService,sans-serif" font-weight="400" font-size="21" transform="translate(442.32 683)">April</text></g><g clip-path="url(#clip17)"><text fill="#595959" font-family="Calibri,Calibri_MSFontService,sans-serif" font-weight="400" font-size="21" transform="translate(535.818 683)">May</text></g><g clip-path="url(#clip18)"><text fill="#595959" font-family="Calibri,Calibri_MSFontService,sans-serif" font-weight="400" font-size="21" transform="translate(627.125 683)">June</text></g><g clip-path="url(#clip19)"><text fill="#595959" font-family="Calibri,Calibri_MSFontService,sans-serif" font-weight="400" font-size="21" transform="translate(722.927 683)">July</text></g><g clip-path="url(#clip20)"><text fill="#595959" font-family="Calibri,Calibri_MSFontService,sans-serif" font-weight="400" font-size="21" transform="translate(814.571 683)">Aug</text></g><g clip-path="url(#clip21)"><text fill="#595959" font-family="Calibri,Calibri_MSFontService,sans-serif" font-weight="400" font-size="21" transform="translate(904.149 683)">Sept</text></g><g clip-path="url(#clip22)"><text fill="#595959" font-family="Calibri,Calibri_MSFontService,sans-serif" font-weight="400" font-size="21" transform="translate(1000.55 683)">Oct</text></g><g clip-path="url(#clip23)"><text fill="#595959" font-family="Calibri,Calibri_MSFontService,sans-serif" font-weight="400" font-size="21" transform="translate(1090.53 683)">Nov</text></g><g clip-path="url(#clip24)"><text fill="#595959" font-family="Calibri,Calibri_MSFontService,sans-serif" font-weight="400" font-size="21" transform="translate(1183.65 683)">Dec</text></g><g clip-path="url(#clip25)"><g clip-path="url(#clip26)"><text fill="#7F7F7F" font-family="Calibri,Calibri_MSFontService,sans-serif" font-weight="400" font-size="19" transform="translate(1205.34 151)">2019</text></g></g><g clip-path="url(#clip27)"><text fill="#8497B0" font-family="Calibri,Calibri_MSFontService,sans-serif" font-weight="400" font-size="19" transform="translate(1134.1 122)">2018</text></g><g clip-path="url(#clip28)"><text fill="#3B3838" font-family="Calibri,Calibri_MSFontService,sans-serif" font-weight="400" font-size="19" transform="translate(1206.35 124)">2017</text></g><g clip-path="url(#clip29)"><path d="M141.5 105.5 1233.89 105.5" stroke="#385723" stroke-width="2.66667" stroke-miterlimit="8" stroke-dasharray="21.3333 8" fill="none" fill-rule="evenodd"/></g><g clip-path="url(#clip30)"><text fill="#C00000" font-family="Calibri,Calibri_MSFontService,sans-serif" font-weight="400" font-size="19" transform="translate(909.984 235)">2020</text></g><g clip-path="url(#clip31)"><text fill="#385723" font-family="Calibri,Calibri_MSFontService,sans-serif" font-weight="400" font-size="24" transform="translate(141.024 130)">2020 Goal: $1.15B</text></g><g clip-path="url(#clip32)"><path d="M137.5 240.5 1229.89 240.5" stroke="#C00000" stroke-width="2.66667" stroke-miterlimit="8" stroke-dasharray="21.3333 8" fill="none" fill-rule="evenodd"/></g><g clip-path="url(#clip33)"><text fill="#C00000" font-family="Calibri,Calibri_MSFontService,sans-serif" font-weight="400" font-size="24" transform="translate(140.941 230)">2020 </text></g><g clip-path="url(#clip34)"><text fill="#C00000" font-family="Calibri,Calibri_MSFontService,sans-serif" font-weight="400" font-size="24" transform="translate(195.107 230)">YTD: $870M</text></g><g clip-path="url(#clip35)"><path d="M403.5 106.5C423.106 106.5 439 119.4 439 135.313L439 144.687C439 160.6 454.894 173.5 474.5 173.5 454.894 173.5 439 186.4 439 202.313L439 211.687C439 227.6 423.106 240.5 403.5 240.5" stroke="#C00000" stroke-width="0.666667" stroke-miterlimit="8" fill="none" fill-rule="evenodd"/></g><g clip-path="url(#clip36)"><g clip-path="url(#clip37)"><text fill="#C00000" font-family="Calibri,Calibri_MSFontService,sans-serif" font-weight="400" font-size="24" transform="translate(485.6 180)">$280M Gap to Raise in Q4</text></g></g><text font-family="Calibri,Calibri_MSFontService,sans-serif" font-weight="700" font-size="24" transform="translate(470.793 26)">Fundraising Progress: Year to Date<tspan font-weight="400" x="92.9267" y="29">Jan</tspan><tspan font-weight="400" x="130.26" y="29">–</tspan><tspan font-weight="400" x="147.76" y="29">Sept 2020</tspan></text></g></svg>